<svg width="21" height="18" viewBox="0 0 21 18" fill="none" xmlns="http://www.w3.org/2000/svg">
<path d="M20.7253 16.9113L13.6229 10.5073C16.1175 7.75623 15.6665 3.70265 12.6155 1.4533C9.56459 -0.796062 5.06898 -0.389356 2.57437 2.36164C0.079752 5.11263 0.530803 9.16624 3.58175 11.4156C6.2097 13.3531 9.98759 13.3531 12.6155 11.4156L19.7179 17.8197C20.0009 18.0661 20.4519 18.0591 20.7253 17.8039C20.9919 17.5549 20.9919 17.1603 20.7253 16.9113ZM8.11004 11.5839C4.96375 11.5807 2.41403 9.28169 2.41052 6.44473C2.41052 3.60644 4.96229 1.30556 8.11004 1.30556C11.2578 1.30556 13.8096 3.60644 13.8096 6.44473C13.8096 9.28301 11.2578 11.5839 8.11004 11.5839Z" fill="#878686"/>
</svg>
